<svg version="1.1" xmlns="http://www.w3.org/2000/svg" xmlns:xlink="http://www.w3.org/1999/xlink" width="500" height="500"><g data-paper-data="{&quot;description&quot;:&quot;Logo for BSY\n============\n\nThis logo was generated by MarkMaker at http://emblemmatic.org/markmaker/ and may be composed of elements designed by others.\n\nThe font is Just Another Hand designed by Astigmatic and released under the APACHE2 license via Google Fonts: https://www.google.com/fonts/specimen/Just%20Another%20Hand. The font includes this copyright statement: Copyright (c) 2010 by Brian J. Bonislawsky DBA Astigmatic (AOETI) (astigma@astigmatic.com). All rights reserved. Available under the Apache 2.0 licence. http://www.apache.org/licenses/LICENSE-2.0.html\n\nMarkMaker uses semantic data from the Princeton University WordNet database http://wordnet.princeton.edu and font descriptions from Google Fonts https://www.google.com/fonts.&quot;}" fill="#cbcdcb" fill-rule="nonzero" stroke="none" stroke-width="1" stroke-linecap="butt" stroke-linejoin="miter" stroke-miterlimit="10" stroke-dasharray="" stroke-dashoffset="0" font-family="none" font-weight="none" font-size="none" text-anchor="none" style="mix-blend-mode: normal"><g data-paper-data="{&quot;elementType&quot;:&quot;logo&quot;}"><g data-paper-data="{&quot;elementType&quot;:&quot;text&quot;}"><g data-paper-data="{&quot;baseline&quot;:73.73046875,&quot;elementType&quot;:&quot;row&quot;}"><g data-paper-data="{&quot;baselineProportion&quot;:0.95448798988622,&quot;fontSize&quot;:100,&quot;baseline&quot;:73.73046875,&quot;elementType&quot;:&quot;word&quot;}"><path d="M189.59466,314.65645c0,15.42264 -2.47158,28.86802 -7.41473,40.33613c-4.94315,11.46812 -11.83061,21.02488 -20.66238,28.67029c-8.83177,7.64541 -19.34421,13.34652 -31.53732,17.10331c-12.19311,3.7568 -25.53963,5.6352 -40.03955,5.6352h-6.72269c-1.31817,0 -3.29544,-0.03295 -5.93178,-0.09886c-2.63635,-0.06591 -5.30565,-0.32954 -8.00791,-0.7909c-2.70226,-0.46136 -5.07497,-1.21931 -7.11814,-2.27385c-2.04317,-1.05454 -3.06476,-2.50453 -3.06476,-4.34998c0,-2.10908 0.49432,-4.1852 1.48295,-6.22837c0.98863,-2.04317 2.27385,-3.88861 3.85566,-5.53633c1.58181,-1.64772 3.36134,-3.0318 5.33861,-4.15225c1.97726,-1.12045 3.95452,-1.8784 5.93178,-2.27385c-1.05454,-1.31817 -1.84544,-3.09771 -2.37271,-5.33861c-0.52727,-2.2409 -0.98863,-4.61361 -1.38408,-7.11814c-0.39545,-2.50453 -0.69204,-4.97611 -0.88977,-7.41473c-0.19773,-2.43862 -0.3625,-4.51475 -0.49432,-6.22837c-2.37271,-20.4317 -4.41588,-40.7975 -6.12951,-61.09738c-1.71363,-20.29988 -2.57044,-40.7975 -2.57044,-61.49283c0,-13.18174 0.19773,-26.23167 0.59318,-39.14978c0.39545,-12.91811 0.725,-25.96803 0.98863,-39.14978c0.26363,-5.40451 0.3625,-10.74312 0.29659,-16.01582c-0.06591,-5.2727 0.09886,-10.6113 0.49432,-16.01582c-0.7909,0.26363 -1.64772,0.39545 -2.57044,0.39545c-0.92272,0 -1.91135,0 -2.96589,0c-1.97726,0 -3.92157,-0.3625 -5.83292,-1.08749c-1.91135,-0.725 -2.86703,-2.47158 -2.86703,-5.23974c0,-3.42725 0.725,-6.19542 2.17499,-8.3045c1.44999,-2.10908 3.29544,-3.72384 5.53633,-4.84429c2.2409,-1.12045 4.77838,-1.84544 7.61246,-2.17499c2.83407,-0.32954 5.6352,-0.49432 8.40336,-0.49432c12.65447,0 24.91349,1.58181 36.77706,4.74543c11.86357,3.16362 22.34305,8.04086 31.43846,14.63174c9.0954,6.59087 16.41127,14.99423 21.9476,25.21008c5.53633,10.21585 8.3045,22.37601 8.3045,36.48047c0,11.59993 -2.10908,22.6726 -6.32724,33.21799c-4.21816,10.54539 -10.41358,19.90443 -18.58626,28.07711c7.38178,3.16362 13.74197,7.28291 19.08057,12.35788c5.33861,5.07497 9.72154,10.77608 13.14879,17.10331c3.42725,6.32724 5.96474,13.14879 7.61246,20.46466c1.64772,7.31587 2.47158,14.79651 2.47158,22.44192M159.93574,314.261c0,-6.32724 -0.56022,-12.45675 -1.68067,-18.38853c-1.12045,-5.93178 -3.06476,-11.36925 -5.83292,-16.31241c-2.76817,-4.94315 -6.39315,-9.19427 -10.87494,-12.75334c-4.48179,-3.55907 -10.08403,-6.19542 -16.80672,-7.90905c-10.01812,5.66815 -20.69534,9.49086 -32.03164,11.46812c1.05454,14.89537 2.33976,29.75779 3.85566,44.58725c1.5159,14.82946 3.65793,29.62597 6.4261,44.38952c0.65909,3.42725 1.41704,6.82155 2.27385,10.1829c0.85681,3.36134 1.41704,6.82155 1.68067,10.38062c8.83177,-1.18636 16.57604,-3.65793 23.23282,-7.41473c6.65678,-3.7568 12.19311,-8.50222 16.609,-14.23628c4.41588,-5.73406 7.71132,-12.35788 9.88631,-19.87148c2.17499,-7.51359 3.26248,-15.55446 3.26248,-24.12259zM142.14039,178.22541c0,-7.90905 -1.25227,-14.92832 -3.7568,-21.05783c-2.50453,-6.12951 -5.99769,-11.46812 -10.47949,-16.01582c-4.48179,-4.5477 -9.8204,-8.23859 -16.01582,-11.07266c-6.19542,-2.83407 -12.98402,-4.97611 -20.36579,-6.4261c0.26363,0.65909 0.39545,1.25227 0.39545,1.77954c0,0.52727 0,0.98863 0,1.38408c0,12.52266 -0.13182,24.88054 -0.39545,37.07365c-0.26363,12.19311 -0.39545,24.48509 -0.39545,36.87593v20.56352c0,2.63635 0.06591,5.30565 0.19773,8.00791c0.13182,2.70226 0.19773,5.43747 0.19773,8.20564c3.42725,-1.44999 6.88746,-2.20794 10.38062,-2.27385c3.49316,-0.06591 7.01928,-0.09886 10.57835,-0.09886c9.88631,-6.19542 17.30104,-14.33515 22.24419,-24.41918c4.94315,-10.08403 7.41473,-20.92602 7.41473,-32.52595" data-paper-data="{&quot;elementType&quot;:&quot;letter&quot;,&quot;baseline&quot;:72.16796875,&quot;baselineProportion&quot;:0.9535483870967741,&quot;fontSize&quot;:100}"></path><path d="M328.59614,329.68364c0,9.75449 -1.58181,18.98171 -4.74543,27.68166c-3.16362,8.69995 -7.67837,16.31241 -13.54424,22.83737c-5.86588,6.52496 -12.95106,11.73175 -21.25556,15.62037c-8.3045,3.88861 -17.53172,5.83292 -27.68166,5.83292c-8.96359,0 -17.23513,-1.41704 -24.81463,-4.25111c-7.5795,-2.83407 -14.13742,-6.82155 -19.67375,-11.96243c-5.53633,-5.14088 -9.85335,-11.40221 -12.95106,-18.78398c-3.09771,-7.38178 -4.64656,-15.62037 -4.64656,-24.71577c0,-1.84544 0.06591,-4.15225 0.19773,-6.92042c0.13182,-2.76817 0.56022,-5.43747 1.28522,-8.00791c0.725,-2.57044 1.77954,-4.74543 3.16362,-6.52496c1.38408,-1.77954 3.3943,-2.6693 6.03065,-2.6693c2.10908,0 4.44884,0.42841 7.01928,1.28522c2.57044,0.85681 4.97611,2.01022 7.217,3.46021c2.2409,1.44999 4.11929,3.19657 5.6352,5.23974c1.5159,2.04317 2.27385,4.25111 2.27385,6.62383v11.46812c0,9.0954 2.47158,16.51013 7.41473,22.24419c4.94315,5.73406 12.09425,8.60109 21.45329,8.60109c6.59087,0 12.25902,-1.5159 17.00445,-4.5477c4.74543,-3.0318 8.60109,-6.92042 11.56698,-11.66584c2.96589,-4.74543 5.14088,-10.05108 6.52496,-15.91696c1.38408,-5.86588 2.07612,-11.63289 2.07612,-17.30104c0,-11.07266 -2.27385,-21.81579 -6.82155,-32.22936c-4.5477,-10.41358 -10.24881,-20.59647 -17.10331,-30.54869c-6.85451,-9.95222 -14.30219,-19.73966 -22.34305,-29.36233c-8.04086,-9.62267 -15.48855,-19.17944 -22.34305,-28.67029c-6.85451,-9.49086 -12.55561,-18.98171 -17.10331,-28.47257c-4.5477,-9.49086 -6.82155,-19.17944 -6.82155,-29.06574c0,-8.04086 1.61476,-14.99423 4.84429,-20.86011c3.22953,-5.86588 7.51359,-10.67721 12.8522,-14.43401c5.33861,-3.7568 11.40221,-6.52496 18.19081,-8.3045c6.7886,-1.77954 13.80788,-2.6693 21.05783,-2.6693c8.83177,0 16.74081,1.25227 23.72714,3.7568c6.98632,2.50453 12.91811,6.12951 17.79535,10.87494c4.87725,4.74543 8.60109,10.57835 11.17153,17.49876c2.57044,6.92042 3.85566,14.79651 3.85566,23.62827c0,1.31817 -0.06591,2.96589 -0.19773,4.94315c-0.13182,1.97726 -0.46136,3.92157 -0.98863,5.83292c-0.52727,1.91135 -1.31817,3.55907 -2.37271,4.94315c-1.05454,1.38408 -2.50453,2.07612 -4.34998,2.07612c-2.63635,0 -5.2727,-0.65909 -7.90905,-1.97726c-2.2409,-1.18636 -4.05339,-2.33976 -5.43747,-3.46021c-1.38408,-1.12045 -2.47158,-2.37271 -3.26248,-3.7568c-0.7909,-1.38408 -1.38408,-2.93294 -1.77954,-4.64656c-0.39545,-1.71363 -0.725,-3.82271 -0.98863,-6.32724c-0.65909,-4.74543 -1.5159,-9.02949 -2.57044,-12.8522c-1.05454,-3.82271 -2.63635,-7.05223 -4.74543,-9.68858c-2.10908,-2.63635 -4.87725,-4.67952 -8.3045,-6.12951c-3.42725,-1.44999 -7.84314,-2.17499 -13.24765,-2.17499c-3.82271,0 -7.48064,0.39545 -10.9738,1.18636c-3.49316,0.7909 -6.52496,2.10908 -9.0954,3.95452c-2.57044,1.84544 -4.61361,4.25111 -6.12951,7.217c-1.5159,2.96589 -2.27385,6.62383 -2.27385,10.9738c0,6.0636 1.35113,12.25902 4.05339,18.58626c2.70226,6.32724 6.26133,12.78629 10.67721,19.37716c4.41588,6.59087 9.42495,13.34652 15.02719,20.26693c5.60224,6.92042 11.36925,14.07151 17.30104,21.45329c5.93178,7.38178 11.6988,14.99423 17.30104,22.83737c5.60224,7.84314 10.6113,15.98286 15.02719,24.41918c4.41588,8.43632 7.97495,17.16922 10.67721,26.19871c2.70226,9.02949 4.05339,18.35558 4.05339,27.97825z" data-paper-data="{&quot;elementType&quot;:&quot;letter&quot;,&quot;baseline&quot;:71.484375,&quot;baselineProportion&quot;:0.9682539682539683,&quot;fontSize&quot;:100}"></path><path d="M450,108.6258c0,2.76817 -0.85681,7.81018 -2.57044,15.12605c-1.71363,7.31587 -3.88861,15.81809 -6.52496,25.50667c-2.63635,9.68858 -5.60224,19.97034 -8.89768,30.84528c-3.29544,10.87494 -6.52496,21.28852 -9.68858,31.24073c-3.16362,9.95222 -6.0636,18.81694 -8.69995,26.59417c-2.63635,7.77723 -4.61361,13.44538 -5.93178,17.00445c1.44999,11.73175 2.43862,23.39759 2.96589,34.99753c0.52727,11.59993 1.12045,23.26578 1.77954,34.99753c0.65909,9.88631 1.28522,19.83852 1.8784,29.85665c0.59318,10.01812 0.88977,19.97034 0.88977,29.85665c0,3.0318 -0.75795,5.37156 -2.27385,7.01928c-1.5159,1.64772 -3.78975,2.47158 -6.82155,2.47158c-1.18636,0 -2.76817,-0.16477 -4.74543,-0.49432c-1.97726,-0.32954 -3.98748,-0.7909 -6.03065,-1.38408c-2.04317,-0.59318 -3.95452,-1.28522 -5.73406,-2.07612c-1.77954,-0.7909 -2.99885,-1.58181 -3.65793,-2.37271c-1.58181,-1.84544 -2.57044,-3.59203 -2.96589,-5.23974c-0.39545,-1.64772 -0.59318,-3.59203 -0.59318,-5.83292c0,-20.4317 -0.19773,-40.73159 -0.59318,-60.89965c-0.39545,-20.16807 -0.59318,-40.46795 -0.59318,-60.89965l-1.58181,-1.58181c-0.7909,-1.18636 -1.68067,-2.86703 -2.6693,-5.04202c-0.98863,-2.17499 -1.97726,-4.44884 -2.96589,-6.82155c-0.98863,-2.37271 -1.8784,-4.67952 -2.6693,-6.92042c-0.7909,-2.2409 -1.44999,-4.02043 -1.97726,-5.33861c-4.34998,-12.1272 -8.43632,-24.25441 -12.25902,-36.38161c-3.82271,-12.1272 -7.90905,-24.25441 -12.25902,-36.38161c-0.65909,-2.10908 -1.71363,-4.97611 -3.16362,-8.60109c-1.44999,-3.62498 -2.89998,-7.41473 -4.34998,-11.36925c-1.44999,-3.95452 -2.73521,-7.67837 -3.85566,-11.17153c-1.12045,-3.49316 -1.68067,-6.16246 -1.68067,-8.00791c0,-1.44999 0.39545,-2.63635 1.18636,-3.55907c0.7909,-0.92272 1.77954,-1.61476 2.96589,-2.07612c1.18636,-0.46136 2.43862,-0.75795 3.7568,-0.88977c1.31817,-0.13182 2.50453,-0.19773 3.55907,-0.19773c3.42725,0 6.62383,0.16477 9.58972,0.49432c2.96589,0.32954 5.96474,1.48295 8.99654,3.46021c0.7909,0.52727 2.04317,2.96589 3.7568,7.31587c1.71363,4.34998 3.62498,9.75449 5.73406,16.21354c2.10908,6.45905 4.31702,13.44538 6.62383,20.95897c2.30681,7.51359 4.44884,14.76355 6.4261,21.74988c1.97726,6.98632 3.7568,13.18174 5.33861,18.58626c1.58181,5.40451 2.70226,9.16131 3.36134,11.27039c4.34998,-16.87263 8.7329,-33.61345 13.14879,-50.22244c4.41588,-16.609 8.20564,-33.48163 11.36925,-50.61789c0.26363,-1.58181 0.56022,-3.32839 0.88977,-5.23974c0.32954,-1.91135 0.7909,-3.65793 1.38408,-5.23974c0.59318,-1.58181 1.48295,-2.93294 2.6693,-4.05339c1.18636,-1.12045 2.83407,-1.68067 4.94315,-1.68067c1.71363,0 3.85566,0.39545 6.4261,1.18636c2.57044,0.7909 5.04202,1.8784 7.41473,3.26248c2.37271,1.38408 4.41588,2.96589 6.12951,4.74543c1.71363,1.77954 2.57044,3.72384 2.57044,5.83292z" data-paper-data="{&quot;elementType&quot;:&quot;letter&quot;,&quot;baseline&quot;:73.73046875,&quot;baselineProportion&quot;:0.993421052631579,&quot;fontSize&quot;:100}"></path></g></g></g></g></g></svg>