<?xml version="1.0" encoding="utf-8"?>
<!-- Generator: Adobe Illustrator 27.1.1, SVG Export Plug-In . SVG Version: 6.00 Build 0)  -->
<svg version="1.1" id="Layer_1" xmlns="http://www.w3.org/2000/svg" xmlns:xlink="http://www.w3.org/1999/xlink" x="0px" y="0px"
	 viewBox="0 0 300 100" style="enable-background:new 0 0 300 100;" xml:space="preserve">
<style type="text/css">
	.st0{fill:#BD1138;}
	.st1{fill:#0087CB;}
	.st2{fill:#2D9646;}
</style>
<g>
	<g>
		<path class="st0" d="M42.5,22c0.1,0.2,0.3,0.4,0.4,0.7c0.2,0.7,0.8,1.1,0.9,1.7c0,0.2,0.3,0.3,0.5,0.4c0.2,0.2,0.1,0.5,0.4,0.8
			c0.2,0.1,0,0.3,0.1,0.6c0.2,0.1,0.3,0.2,0.5,0.3c1.4,2.2,1.5,4.7-0.1,7c-0.3,0.3-0.5,0.6-0.6,1c-0.1,0.1-0.4,0.3-0.5,0.4
			c0,0.2,0.2,0.3,0.3,0.5c-0.7,0.2-0.8,0.8-1.3,1.2c-0.1,0-0.4,0-0.6,0.1c-0.4,0.4-0.8,0.5-1.2,0.8c-0.1,0.1-0.1,0.5-0.1,0.6
			c-0.7,0.5-1.6,0.8-2.6,0.8c-0.1,0-0.2,0.4-0.4,0.4c-0.7,0.1-1.6,0-2.3,0.1c-0.3-0.1-0.5-0.3-0.8-0.4c-0.3,0-0.6,0.1-0.9,0
			c-0.5-0.3-1-0.4-1.5-0.6c-0.3-0.1-0.8,0.2-1.1,0c-0.9-0.8-1.9-1.7-2.4-2.5c-0.3-0.5-0.9-0.7-1.1-1.3c0-0.2,0.1-0.6-0.2-0.7
			c-0.6-0.2-0.3-0.5-0.4-0.9c-0.2-0.3-0.2-0.6-0.5-0.9c-0.2-0.3,0.1-0.8-0.1-1.2c0-0.1,0.1-0.2,0.1-0.4c-0.2-0.7,0.1-1.4,0.1-1.9
			c0-0.3,0.1-0.8,0.2-1.2c0.4-0.7,0.7-1.6,1.3-2.3c0-0.1,0-0.3,0-0.5c0.1-0.1,0.3-0.1,0.4-0.3c0.2-0.6,0.5-1.1,0.8-1.6
			c0.5-0.6,1.3-1.2,1.9-1.8c0.4-0.4,0.9-0.7,1.3-1.3c0.1-0.1,0.6,0.1,0.7-0.1c0.4-0.4,1-0.3,1.4-0.6c0.4-0.3,0.3,0.3,0.7,0.2
			c0.3,0,0.4-0.2,0.7-0.3c0.4-0.2,0.9,0.1,1.3,0.2c0.4,0,0.9,0,1.3,0.3c0.6,0.4,2,0.3,2.3,1C41.5,21.1,42.1,21.5,42.5,22z"/>
		<path class="st1" d="M66.4,31c0-0.4,0-0.6-0.1-0.9c0-0.4,0.2-0.7,0.1-1.2c-0.1-0.1-0.3-0.3-0.2-0.4c0.2-0.7,0.3-1.4,0.2-2.2
			c-0.1-0.2-0.1-0.4-0.2-0.5c0-0.1,0.1-0.3,0.1-0.5c0-0.7-0.2-1.2-0.4-1.8c-0.1-0.2-0.2-0.4-0.3-0.7c-0.1-0.1-0.3-0.3-0.2-0.4
			c0.2-1-0.3-1.8-0.4-2.7c-0.2-1.1-1.2-1.7-1.6-2.8c0-0.1,0.4-0.1,0.5,0c0.8,0.7,1.7,1.6,1.9,2.7c0.1,0.4,0.1,0.7,0.2,1
			c0.7,0.8,0.8,1.9,0.9,2.9c0,0.1,0.2,0,0.3,0.2c0,0.1-0.1,0.3,0,0.5c0.5,0.6,0.2,1.2,0.3,1.8c0.1,0.2,0.1,0.4,0.2,0.5
			c0,0.1-0.3,0.4-0.3,0.5c0.4,0.5,0.6,1.3,0.5,1.9c0.5,0.2,0.3,0.9,0.4,1.3c0.1,0.1,0.2,0.2,0.3,0.2c0.1-0.2,0.3-0.4,0.3-0.6
			c0.1-0.9,0.1-1.7-0.1-2.5c-0.1-0.4-0.2-0.7,0.1-1c-0.2,0-0.3-0.3-0.3-0.4c-0.4-1.4-0.5-3.1-0.9-4.5c0,0,0.1-0.1,0.1-0.2
			c-0.2-1.3-1.1-2.5-1.6-3.8c-0.1-0.2-0.5-0.5-0.6-0.8c0,0,0-0.1,0-0.2c0.5,0.1,0.9,0.6,1.2,0.9c0.5,0.7,1.1,1.6,1.3,2.4
			c0.3,0.7,0.7,1.5,0.9,2.3c0.1,0.5,0.5,0.8,0.7,1.2c0.1,0.4,0.1,0.7,0.1,1.1c0.1,0.8,0.4,1.6,0.6,2.5c0.2,0.6,0.3,1.3,0.1,1.8
			c-0.3,1,0.4,2,0.6,2.9c0.1,0.4,0,0.8-0.2,1.1c0,0.1,0.2,0.3,0.1,0.4c-0.2,0.4,0,0.8-0.1,1.2c-0.1,0.1,0.1,0.4,0,0.6
			c-0.1,0.1-0.2,0.1-0.3,0.2c-0.2,0.3,0,0.7-0.1,1c-0.3,0.6-0.2,1.4-0.8,1.9c-0.2,0.1-0.2,0.2-0.4,0.3c0.1,0,0.2,0.2,0.3,0.3
			c-0.1,0.1-0.2,0.1-0.3,0.2c0,0.2,0.4,0.5,0.5,0.6c-0.2,0.9-0.8,1.6-0.8,2.7c0,0.2-0.1,0.5-0.1,0.8c-0.2,0.5-0.6,0.9-0.8,1.4
			c0,0.2-0.5,0.2-0.5,0.5c-0.3,0.3-0.2,0.7-0.4,1.2c-0.1,0.2-0.4,0.1-0.7,0.3c-0.3,0.4-0.2,0.7-0.4,1.2c-0.3,0.5-0.7,1-1,1.6
			c-0.3,0.7-0.9,1.4-1.5,2c-0.1,0-0.3,0-0.4,0.1c-0.3,0.6-0.7,1.1-1.4,1.4c-0.1,0-0.3,0.5-0.4,0.5c-0.5,0.3-0.7,0.7-1.3,1.1
			c-0.2,0.1-0.3,0.2-0.6-0.2c-0.7,1.3-1.7,2.3-2.8,3.2c-0.6,0.3-1.1,0.3-1.5,0.7c-1.2,1.2-3.2,2.5-3.4,2.7c-0.1,0-0.5,0.5-0.5,0.5
			c-0.4,0-0.2,0.1-0.5,0c0,0,0,0.6-0.5,0.7c-1.1,0.2-1.3,1.4-1.4,1.9c0,0.3-0.2,0.1-0.3,0.2c-0.1,0.1,0,0.3-0.2,0.4
			c-0.5,0.3-0.9,0.8-1.2,1.3c-0.1,0.1-0.2-0.1-0.3,0.1c-0.1,0.1-0.7,0.8-0.9,1.4c-0.5,1.1-1,2-1.7,2.8c-0.2,0.2,0.4,0.9,0.3,1.1
			c-0.2,0.3-0.5,0.4-0.6,0.7c-0.1,0.8-0.2,1.8-0.3,2.7c-0.2,0.9,0.1,1.5,0.2,2.3c0.1,0.7,0,1.5,0,2.1c0,0.5,0.4,1.1,0.3,1.6
			c0,0.8-0.2,0.7,0,1.3c0,0.4-0.1,0.7-0.1,1c0,0.5-0.1,0.8-0.1,1.3c-0.1,0.1-0.3,0.4-0.3,0.5c-0.1,1.2-0.9,2.3-1.7,3.2
			c-0.5,0.3-1,0.9-1.6,0.8c-0.3,0-1.3,0.6-1.7,0.7c-0.9,0.3-1.6,0.3-2.5,0.1c-0.9-0.3-1.7-0.5-2.4-1.5c-0.4-0.4-1.1-0.3-1.3-0.9
			c-0.1-0.3-0.6-0.4-0.7-0.5c-0.5-0.4-0.8-1-1.1-1.5c-0.3-0.7-0.1-1.1-0.4-1.8c-0.3-0.4-0.4-0.7-0.8-1.1c-0.4-0.5,0.1-1.3-0.2-1.8
			c-0.2-0.1-0.4-0.4-0.5-0.7c-0.2-0.5-0.2-1.3-0.5-1.8c-0.2-0.6-0.1-3,0.1-3.6c0-0.1-0.3-0.3-0.3-0.4c0.1-0.9,0.4-1.8,0.3-2.7
			c0.1-0.5,0-0.9,0.5-1.3c0,0-0.2-0.2-0.2-0.3c0.3-0.7,0.3-1.3,0.4-2.1c0-0.1,0.3-0.2,0.3-0.3C29,65.2,29,64,29.1,63.5
			c0-0.3,0.7-0.6,0.9-0.9c0-0.1-0.1-0.5,0.1-0.9c0.1-0.1,0.2-0.1,0.4-0.2c0-0.1-0.1-0.3,0-0.4c0.1-0.4,0.7-0.7,0.7-0.9
			c0.3-0.9,0.7-1.2,1.1-1.9c0.2-0.3,0.2-0.6,0.5-0.9c0.1-0.1,0.2,0,0.2-0.1c0-0.1,0-0.4,0-0.5c0.3-0.3,0.6-0.5,0.7-0.9
			c0.2-0.4,0.3-0.7,0.6-1c0.5-0.4,0.9-0.7,1.2-1.2c0.3-0.3,0.5-0.2,0.8-0.5c0.4-0.4,0.5-0.9,0.7-1.3c0.6-0.8,1.3-1.3,2-1.8
			c0.6-0.4,1.3-0.6,1.9-0.9c0.6-0.4,0.9-1.3,1.5-1.6c0.3-0.3,0.8-0.3,1.1-0.5c0.4-0.3,0.6-0.8,1.2-0.9c1.2-0.3,0.3,0,1.4-0.4
			c0.7-0.4,0.4-0.5,1.1-0.9c1.1-0.7,1.7-1.1,1.8-1.1c0.1-0.1,0.2-0.2,0.3-0.4c0.3-0.4,1.7-1.4,1.9-1.5c0.2-0.1,0.5,0.2,0.7-0.1
			c0.1-0.2-0.1-0.4,0-0.6c0.4-0.4,0.7-0.9,1.1-1.1c0.1-0.1,0.4,0.1,0.6,0c0.1-0.1,0.2-0.3,0.3-0.4c0.1-0.2-0.1-0.5,0-0.7
			c0.2-0.3,0.3-0.6,0.5-0.7c0.3-0.2,0.8-0.4,0.7-0.6c0.1-0.4,0.3-0.9,0.7-1.1c0-0.1,0-0.2,0.1-0.3c0.3-0.3,0.5-0.5,0.8-0.7
			c0.3-0.4,0.2-0.9,0.3-1.2c0.5-0.6,1-1,1.2-1.8c0-0.4-0.3-0.9-0.1-1.2c0.1-0.2,0.6-0.3,0.6-0.5c0.1-0.4-0.1-0.9-0.2-1.4
			c0.1-0.3,0.4-0.6,0.4-0.9c0-0.9,0-1.8-0.1-2.8c0.3,0,0.4-0.3,0.4-0.5c-0.1-0.7-0.5-1.4-0.7-2.1c0-0.5,0.4-0.8,0.3-1.3
			c0-0.4-0.4-0.8-0.7-1.1c-0.3-0.4-0.1-1.1-0.2-1.5c-0.1-0.6-0.5-1-0.6-1.7c0-0.4-0.5-0.3-0.6-0.7c-0.1-0.5-0.2-1-0.2-1.5
			c-0.1-0.2-0.4-0.2-0.6-0.3c-0.4-0.7-0.3-2-1.1-2.3c0.1-0.4-0.3-0.5-0.5-0.9c0.5,0,1,0.2,1.3,0.9c0.1,0.1,0.4,0.2,0.5,0.2
			c0.3,0.3,0.2,1,0.5,1.1c0.4,0.3,0.9,0.2,1,0.6c0.2,0.6,0.7,0.9,0.9,1.4c0,0.1,0,0.4,0.1,0.5c0.4,0.3,0.4,0.7,0.7,0.9
			c0.6,0.7,1.2,1.4,0.9,2.4c-0.2,0.4,0.4,0.3,0.5,0.6c0.4,0.7,0.2,1.5,0.8,2.1c-0.1,1.1,0.4,2.1,0.8,3.1c-0.6,0.9-0.3,2.5,0.2,3.4
			c0,0,0.3,0,0.3-0.2c0.1-0.5,1.1-0.7,0.9-1c-0.2-0.6-0.5-1.9-0.5-2.5c0.1-0.9,0.1-1.7,0-2.6c-0.1-0.1-0.2-0.3-0.2-0.4
			c-0.1-0.5-0.2-1-0.1-1.5c-0.1-0.2-0.2-0.4-0.3-0.6c0-0.1,0.1-0.3,0.1-0.4c0.2-0.1,0.5,0.1,0.7,0.2c0.2,0.2,0,0.5,0.1,0.6
			c0.3,0.5,0.8,0.7,0.9,1.3c0,0.1-0.1,0.3-0.1,0.4c0.1,0.7,0.5,1.2,0.6,1.8c0,0.3-0.3,0.9-0.1,1.2c0.5,0.9,0.5,1.9,0.4,2.9
			c-0.1,0.4,0.5,0.8,0.3,1.1c-0.2,0.3,0,0.4-0.1,0.7c0,0.1-0.2,0.2-0.3,0.3c0.3,0.6-0.2,1.6-0.3,2.1c0,0.1,0.3,0.2,0.4-0.2
			c0-0.2,0.5-0.2,0.7-0.3C66.2,31.8,66.4,31.4,66.4,31z M68.5,33.2c0-0.6,0.3-1,0.2-1.6c-0.2-0.6-0.6,0-1,0c0.2,0.7-0.1,1.2-0.3,1.9
			c-0.1,0.2-0.2,0.7,0.1,0.7C68,34.3,68.5,33.8,68.5,33.2z M67.7,36.2c0.1-0.2,0.1-0.5-0.1-0.7c-0.3-0.2-0.6,0.1-0.8,0.4
			c-0.2,0.3,0,0.8,0.4,0.8C67.2,36.7,67.5,36.3,67.7,36.2z"/>
		<path class="st1" d="M61.8,17.5c0.5,0.4,0.7,1.1,1.2,1.6l0,0.2c-0.7,0.6-1.4-0.4-1.6-1c-0.3-0.6-0.6-1.3-1.1-1.7
			c0-0.1,0-0.2,0.1-0.3c-0.3-0.3-0.6-0.7-0.3-0.9c0.1-0.2,0.4,0.2,0.7,0.4C61.1,16.3,61.2,17,61.8,17.5z"/>
		<path class="st1" d="M64.8,14.6c0,0.1-0.2,0.3-0.2,0.4c-0.3-0.3-0.7-0.6-1-1.2c-0.1,0-0.3-0.1-0.4-0.2c-0.1,0-0.1-0.1-0.1-0.2
			c0.3,0,0.6,0.3,0.8,0.5c0.1,0,0.2-0.1,0.3,0C64.6,14,64.8,14.3,64.8,14.6z"/>
		<path class="st2" d="M19.7,34.8c0.1,0.1,0.2,0.2,0.3,0.3c0.2,0.1,0.3,0.1,0.5,0c0.2,0,0.3,0.4,0.5,0.5c0.2,0.1,0.4,0.5,0.6,0.7
			c0.2,0.1,0.3,0.3,0.5,0.4c0.2,0.3,0.4,0.6,0.6,0.8c0.2,0.2,0.4,0.1,0.6,0.1c0.3,0.1,0.5,0.6,0.7,0.9c0.1,0,0.2,0.3,0.2,0.4
			c0.2,0.1,0.3,0.3,0.6,0.4c0.1,0.1,0.1,0.3,0.1,0.4c0.6,1,1.4,1.6,1.9,2.6c0,0,0.1,0.2,0.1,0.3c0.6,0.6,0.9,1.5,1.4,2.1
			c0.1,0.3,0.3,0.8,0.4,1.1c0.2,0.2,0.3,0.3,0.5,0.5c0.2,0.4,0.4,0.9,0.5,1.3c0,0.2-0.1,0.7-0.4,0.4c-0.4-0.4-0.3-0.9-0.7-1.3
			c0-0.1-0.1-0.3-0.2-0.4c-0.2-0.2-0.4-0.2-0.5-0.5c0-0.3-0.3-0.5-0.4-0.7c-0.4-0.6-1-0.8-1.4-1.4c-0.1,0-0.2,0-0.3,0.1
			c-0.1,0.2-0.3,0.4-0.1,0.7c0.3,0.2,0.5,0.6,0.9,0.8c0.2,0.2,0.3,0.7,0.5,1.2c0.2,0.2,0.3,0.4,0.6,0.5c0.2,0.2,0.1,0.5,0.4,0.8
			c0,0.1-0.1,0.2-0.1,0.3c0.1,0.3,0.5,0.2,0.7,0.5c0.2-0.2,0.4,0,0.6,0.2c-0.3,0.3-0.2,0.4-0.3,0.7c-0.3,0.4,0.4,0.9,0.8,1.1
			c0.3,0,0.2,0.5,0.5,0.7c0.1,0.3,0.6,0.3,0.8,0.7c0.1,0.2-0.1,0.3-0.2,0.4c0,0.3,0.3,0.4,0.5,0.5c0.2,0.1,0.2,0.3,0.3,0.5
			c-0.3,0.1-0.7-0.3-1-0.3c-0.2-0.1-0.5-0.4-0.8-0.5c-0.1,0-0.2,0.2-0.3,0.2c-0.2,0-0.3-0.1-0.5-0.1c-0.2,0-0.6-0.5-0.8-0.5
			c-0.2,0-0.5,0.3-0.7,0.3c-0.8-0.1-0.8-0.2-1-0.3c-0.3-0.1-0.5-0.2-0.8-0.4c-0.2-0.1-0.1-0.3-0.3-0.4c-0.2-0.1-0.5-0.1-0.6-0.2
			c-0.6-0.4-1.2-1.2-1.7-1.5c-0.3-0.2-0.6-0.4-1-0.5c-0.2-0.1-0.3-0.4-0.5-0.5c-0.7-0.2-1.3-0.7-2.1-0.9c-1.5-0.4-2.8,0.4-4,1.1
			c-0.1,0-0.2,0-0.3,0c-0.3,0.2-0.6,0.4-0.9,0.6c-0.4,0.3-0.9,0.4-1.3,0.6c-0.1,0.1-0.2,0.3-0.3,0.4c-0.2,0.1-0.6,0.1-0.8,0.3
			c-0.2,0.1-0.2,0.3-0.4,0.5c-0.4,0.3-0.7,0.5-1.2,0.7c-0.3,0.1-2.6,0.5-2.9,0.5c-0.6,0-1,0.5-1.9,0.5c-1.3,0-2.7,0-3.8-0.9
			c-0.2-0.2-0.3-0.8-0.4-0.9c-0.5-0.3-0.4-1-0.6-1.4C0.3,50.1,0,50.1,0,49.8c0.2-1.4,0.9-2.6,1.7-3.5c0.2-0.4,0.6-0.5,0.7-1
			c0,0,0.7-1,1.2-1.5c0.1-0.2,0-0.5,0-0.6c0.7-1.3,1.9-2.2,2.9-3.4c0.3-0.3,0.5-0.6,0.9-0.7c0.2,0,0.3,0,0.4-0.1
			c0.2-0.4,0.6-0.7,0.8-0.9c1-0.7,1.8-1.7,2.9-1.8c0.2-0.1,0.3-0.3,0.4-0.3c0.2-0.2,0.5,0,0.7,0c0.8-0.4,1.6-1.2,2.4-1.3
			c0.2-0.1,0.3-0.3,0.4-0.2c0.8,0.1,1.6-0.6,2.3,0.1C18.4,34.3,19.3,34.5,19.7,34.8z M25.5,42.8c0-0.1,0-0.2,0-0.3
			c-0.3-0.2-0.5-0.8-0.9-0.9c-0.1,0-0.3,0.1-0.3,0.2c0,0.6,0.2,0.9,0.4,1.4c0.1-0.4,0.3-0.3,0.5-0.1C25.4,43.1,25.5,42.9,25.5,42.8z
			"/>
	</g>
	<g>
		<path d="M105.5,68.5l-3.8,3.9L91.2,62.2c-1.4,2.5-3,4.5-4.9,6.2c-1.9,1.7-3.8,3.1-5.7,4.2l-3.7-4.2c2.1-1,3.8-2.2,5.3-3.6
			c1.5-1.4,2.7-2.8,3.6-4.4c0.9-1.5,1.6-3.1,2-4.7c0.4-1.6,0.6-3.1,0.6-4.7v-7.3h5.8v6.2c0,1.2-0.1,2.4-0.2,3.5
			c-0.2,1.1-0.4,2.2-0.6,3.2L105.5,68.5z M117.6,86.3h-5.5V58.6h-11.5v-5.3h11.5V39.2h5.5V86.3z"/>
		<path d="M167.3,65.7h-19.6v2.6h9.7v12.2h-18.8v2.3h20.1v5.3h-25.8V75.5h18.8v-2.1h-19v-5.1h9.5v-2.6h-19.2v-5.2h44.4V65.7z
			 M156.9,49c0,1.5-0.3,2.8-1,4.1c-0.6,1.2-1.5,2.3-2.6,3.2c-1.1,0.9-2.4,1.5-3.9,2c-1.5,0.5-3.1,0.7-4.9,0.7
			c-1.7,0-3.2-0.2-4.7-0.7c-1.5-0.4-2.8-1.1-3.9-2c-1.1-0.9-2-1.9-2.6-3.1c-0.6-1.2-1-2.6-1-4.2c0-1.6,0.3-3,0.9-4.2
			c0.6-1.3,1.5-2.3,2.6-3.2c1.1-0.9,2.3-1.6,3.8-2.1c1.5-0.5,3.1-0.7,4.8-0.7c1.7,0,3.3,0.2,4.8,0.7c1.5,0.5,2.8,1.2,3.9,2.1
			c1.1,0.9,2,1.9,2.6,3.2C156.6,46.1,156.9,47.5,156.9,49z M151.2,49c0-1.6-0.7-2.9-2-3.8c-1.3-0.9-2.9-1.4-4.7-1.4
			c-1.9,0-3.4,0.5-4.7,1.4c-1.3,0.9-1.9,2.2-1.9,3.9c0,1.6,0.6,2.8,1.9,3.7c1.3,0.9,2.8,1.3,4.7,1.3c1.8,0,3.4-0.4,4.7-1.2
			C150.6,52,151.2,50.7,151.2,49z"/>
		<path d="M213.9,69.1h-44.4v-5.2h44.4V69.1z M204.3,88.1h-5.5V77.3h-19.8V72h25.4V88.1z M204.2,61.2h-25.1V40.8h24.8V46h-19.3v2.2
			h18.7v5.3h-18.7V56h19.6V61.2z"/>
		<path d="M238.8,63.3h-21.1V41.7h5.5v6.2h10.1v-6.2h5.5V63.3z M233.3,58v-4.9h-10.1V58H233.3z M254.4,88.1H229v-13h18.5v-2.7h-18.8
			v-5.2h24.5v13h-18.4v2.7h19.6V88.1z M254.8,65.7h-5.4v-5h-8.9v-5.2h8.9v-3.7h-8.9v-5.2h8.9v-7.3h5.4V65.7z"/>
		<path d="M288.7,68.7l-3.8,3.9l-10.5-10.3c-1.3,2.5-3,4.6-4.9,6.3c-1.9,1.7-3.9,3.1-5.8,4.2l-3.7-4.2c2.1-1.1,3.9-2.4,5.4-3.8
			c1.5-1.4,2.7-2.8,3.6-4.3c0.9-1.5,1.6-3.1,2-4.6c0.4-1.6,0.6-3.1,0.6-4.6v-7.4h5.8v6.4c0,1.2-0.1,2.4-0.2,3.4
			c-0.2,1.1-0.4,2.1-0.6,3.1L288.7,68.7z M300,86.3h-5.5V39.2h5.5V86.3z"/>
	</g>
</g>
</svg>
